<svg xmlns="http://www.w3.org/2000/svg" viewBox="0 0 595.28 347.71"><defs><style>.cls-1{fill:#0093a1;}.cls-2,.cls-8{fill:#fff;}.cls-10,.cls-11,.cls-3,.cls-4,.cls-5,.cls-6,.cls-7,.cls-9{fill:none;stroke:#0093a1;stroke-linecap:round;stroke-linejoin:round;stroke-width:2px;}.cls-3{stroke-dasharray:0 3.98;}.cls-5{stroke-dasharray:0 3.99;}.cls-6{stroke-dasharray:0 4.43;}.cls-7{stroke-dasharray:0 4.26;}.cls-8{font-size:3.87px;font-family:DINOT-Medium, DIN OT;font-weight:500;}.cls-9{stroke-dasharray:0 3.96;}.cls-10{stroke-dasharray:0 3.86;}.cls-11{stroke-dasharray:0 3.61;}.cls-12{fill:#00aeef;}.cls-13{fill:#003750;}.cls-14{fill:#54565f;}.cls-15{fill:#54575e;}.cls-16{fill:#696b75;}.cls-17{fill:#d1d1d6;}.cls-18{fill:#050f34;}.cls-19{fill:#a3a6b0;}.cls-20{fill:#e5e5e8;}.cls-21{fill:#babdc2;}.cls-22{fill:#47474a;}.cls-23{fill:#dbf0ff;}.cls-24{fill:#262629;}.cls-25{fill:#b4cc38;}.cls-26{fill:#787a87;}.cls-27{fill:#f59c00;}</style></defs><g id="Ebene_2" data-name="Ebene 2"><g id="Ebene_6" data-name="Ebene 6"><path class="cls-1" d="M346.33,19a19,19,0,1,1-19-19,19,19,0,0,1,19,19"/><path class="cls-2" d="M334.38,16.2H332V8.72a.57.57,0,0,0-.59-.58h-.88a.57.57,0,0,0-.59.58V16.2h-5.29V8.72a.57.57,0,0,0-.59-.58h-.88a.57.57,0,0,0-.59.58V16.2h-2.35v6.52s0,5.59,5.59,5.59h.29v4.45h2.06V28.31h.65s5.58,0,5.58-5.59Z"/><line class="cls-3" x1="327.3" y1="48.53" x2="327.3" y2="169.83"/><path class="cls-4" d="M327.3,171.81h0m0-127.26h0"/><path class="cls-1" d="M238.11,59a19,19,0,1,1-19-19,19,19,0,0,1,19,19"/><path class="cls-2" d="M220.58,63.86a5,5,0,0,0-.09-.82,6,6,0,0,0-.26-1.11c-1.1-3.81-4.53-7.14-5.66-12.64-1.32,5.63-4.78,9.15-5.75,12.93a5.29,5.29,0,0,0-.17.79,5.35,5.35,0,0,0-.09.85,6,6,0,0,0,12,0m-1.08-.29a5.09,5.09,0,0,1-5.05,5.11.48.48,0,0,1,0-1,4.14,4.14,0,0,0,4.1-4.16.48.48,0,0,1,.47-.48.49.49,0,0,1,.48.48"/><path class="cls-2" d="M228.41,55.34a3.13,3.13,0,0,0,0-.5,3.2,3.2,0,0,0-.16-.68c-.67-2.33-2.77-4.36-3.46-7.73-.81,3.45-2.92,5.6-3.52,7.91a4.1,4.1,0,0,0-.1.48,3.37,3.37,0,0,0-.05.52,3.67,3.67,0,1,0,7.34,0m-.66-.18a3.11,3.11,0,0,1-3.08,3.13.29.29,0,1,1,0-.58,2.52,2.52,0,0,0,2.5-2.55.29.29,0,1,1,.58,0"/><path class="cls-1" d="M266,118.74a19,19,0,1,1-19-19,19,19,0,0,1,19,19"/><line class="cls-5" x1="214.65" y1="88.12" x2="214.65" y2="197.89"/><line class="cls-6" x1="219.08" y1="199.89" x2="221.3" y2="199.89"/><path class="cls-4" d="M223.51,199.89h0m-8.86,0h0m0-115.77h0"/><path class="cls-1" d="M401.65,59a19,19,0,1,1-19-19,19,19,0,0,1,19,19"/><line class="cls-5" x1="382.9" y1="88.12" x2="382.9" y2="197.89"/><line class="cls-6" x1="378.47" y1="199.89" x2="376.26" y2="199.89"/><path class="cls-4" d="M374,199.89h0m8.86,0h0m0-115.77h0"/><line class="cls-7" x1="246.97" y1="146.26" x2="246.97" y2="169.69"/><path class="cls-4" d="M247,171.81h0m0-29.8h0"/><text class="cls-8" transform="translate(272.59 51.09)">AI</text><text class="cls-8" transform="translate(276.22 51.09)">R</text><path class="cls-1" d="M294.6,40a19,19,0,1,1-19-19,19,19,0,0,1,19,19"/><path class="cls-2" d="M284,35a.67.67,0,0,0-.67-.67h-3.13a.67.67,0,1,0,0,1.33h3.13A.67.67,0,0,0,284,35m0-3.44a.67.67,0,0,0-.67-.67h-3.13a.67.67,0,1,0,0,1.33h3.13a.67.67,0,0,0,.67-.66m-2.92,16A6.44,6.44,0,0,0,278,42V29.35h0v-.16h0a3.31,3.31,0,0,0-6.62,0h0V42a6.43,6.43,0,1,0,9.75,5.51m-4.25-11.7h-4.39V29.51h0a2.19,2.19,0,0,1,4.38,0h0v.1h0Zm3.37,3.26h3.13a.66.66,0,0,0,.67-.66.67.67,0,0,0-.67-.67h-3.13a.67.67,0,0,0-.67.67.66.66,0,0,0,.67.66"/><line class="cls-9" x1="275.58" y1="72.73" x2="275.58" y2="169.83"/><path class="cls-4" d="M275.58,171.82h0m0-103h0"/><path class="cls-1" d="M334.28,91.17a19,19,0,1,1-19-19,19,19,0,0,1,19,19"/><path class="cls-2" d="M328.9,90.53V84.68s0-.09-.27-.09h-7.49v-1s0-.22-.08-.22h-4.8s-.08,0-.08.22v8s0,.22.08.22h4.8s.08,0,.08-.22v-1h7.49s.27,0,.27-.1m-11.15,7.53c-.53-1-1.53-2.65-1.89-3.46l-.63-1.36s-.38.82-1,2c-.73,1.51-1.28,2.28-1.89,3.53a3.36,3.36,0,0,0,0,3.27,3.42,3.42,0,0,0,3,1.49,3,3,0,0,0,2.85-1.76c.76-1.47.08-2.69-.45-3.71m-.56,3.52a2.17,2.17,0,0,1-1.95,1,2.6,2.6,0,0,1-1.55-.58,2.18,2.18,0,0,1-.6-2.16,20.32,20.32,0,0,1,1.5-2.85l.65-1.31s1.62,2.91,1.93,3.57a2.74,2.74,0,0,1,0,2.37m-2.81-10v-8s0-.22-.08-.22h-4.8s-.08,0-.08.22v1h-7.49s-.27,0-.27.09v5.85s0,.1.27.1h7.49v1s0,.22.08.22h4.8s.08,0,.08-.22"/><line class="cls-10" x1="315.25" y1="121.66" x2="315.25" y2="169.89"/><path class="cls-4" d="M315.25,171.82h0m0-54h0"/><path class="cls-1" d="M373.86,139.3a19,19,0,1,1-19-19,19,19,0,0,1,19,19"/><path class="cls-2" d="M368.4,137.8a13.51,13.51,0,0,0-4-9.6l-.95,1a12.24,12.24,0,0,1,0,17.28l.95,1a13.53,13.53,0,0,0,4-9.6m-3,0a10.57,10.57,0,0,0-3.11-7.5l-1,1a9.26,9.26,0,0,1,0,13.07l1,1a10.57,10.57,0,0,0,3.11-7.5m-3,0a7.6,7.6,0,0,0-2.23-5.39l-1,1a6.25,6.25,0,0,1,0,8.86l1,1a7.6,7.6,0,0,0,2.23-5.39m-5,.11a2.64,2.64,0,1,0-3.25,2.57v12.14h1.24V140.48a2.64,2.64,0,0,0,2-2.57m-7.06,4.32a6.28,6.28,0,0,1,0-8.86l-1-1a7.63,7.63,0,0,0,0,10.78Zm-4.81-4.43a9.25,9.25,0,0,1,2.7-6.54l-1-1a10.6,10.6,0,0,0,0,15l1-1a9.2,9.2,0,0,1-2.7-6.53m-3,0a12.17,12.17,0,0,1,3.58-8.64l-1-1a13.59,13.59,0,0,0,0,19.2l1-1a12.19,12.19,0,0,1-3.58-8.64"/><line class="cls-11" x1="354.83" y1="168.21" x2="354.83" y2="170.01"/><path class="cls-4" d="M354.83,171.81h0m0-7.21h0"/><polygon class="cls-12" points="474.55 333.54 387.57 333.54 387.57 294.39 392.07 294.39 394.32 238.12 401.32 238.12 403.06 294.39 407.56 294.39 425.06 278.28 425.06 294.39 442.83 278.42 442.83 294.5 459.06 277.91 459.06 294.39 474.3 278.42 474.55 333.54"/><polygon class="cls-12" points="116.18 233.79 105.83 233.79 105.83 228.49 77.33 228.49 77.33 233.79 67.87 233.79 67.87 333.54 116.17 333.54 116.18 233.79"/><polygon class="cls-12" points="538.63 233.79 528.29 233.79 528.29 228.49 499.79 228.49 499.79 233.79 490.33 233.79 490.32 333.54 538.62 333.54 538.63 233.79"/><polygon class="cls-12" points="157.17 251.75 148.69 251.75 148.69 247.4 125.32 247.4 125.32 251.75 117.56 251.75 117.56 333.54 157.17 333.54 157.17 251.75"/><polygon class="cls-12" points="252.22 251.75 243.74 251.75 243.74 247.4 220.37 247.4 220.37 251.75 212.62 251.75 212.61 333.54 252.22 333.54 252.22 251.75"/><rect class="cls-2" x="360.08" y="263.78" width="30.58" height="69.75"/><rect class="cls-2" x="118.71" y="264.91" width="27.75" height="67.79"/><rect class="cls-2" x="87.09" y="276.61" width="23.04" height="56.09"/><rect class="cls-2" x="43.72" y="243.6" width="36.59" height="89.1"/><rect class="cls-2" x="527.54" y="243.6" width="35.24" height="89.21"/><rect class="cls-2" x="419.12" y="286.24" width="13.55" height="11.46"/><rect class="cls-2" x="394.73" y="297.7" width="62.34" height="34.99"/><rect class="cls-2" x="151.27" y="296.01" width="64.53" height="36.69"/><path class="cls-13" d="M142.75,319.6H138v-4.78h4.71Zm0-7.79H138V307h4.71Zm0-7.8H138v-4.78h4.71Zm0-8.12H138v-4.78h4.71Zm0-8.12H138V283h4.71Zm0-8.12H138v-4.78h4.71Zm0-8.12H138v-4.78h4.71Zm-8.92,48.07h-4.71v-4.78h4.71Zm0-7.79h-4.71V307h4.71Zm0-7.8h-4.71v-4.78h4.71Zm0-8.12h-4.71v-4.78h4.71Zm0-8.12h-4.71V283h4.71Zm0-8.12h-4.71v-4.78h4.71Zm0-8.12h-4.71v-4.78h4.71Zm-8.92,48.07H120.2v-4.78h4.71Zm0-7.79H120.2V307h4.71Zm0-7.8H120.2v-4.78h4.71Zm0-8.12H120.2v-4.78h4.71Zm0-8.12H120.2V283h4.71Zm0-8.12H120.2v-4.78h4.71Zm0-8.12H120.2v-4.78h4.71Zm23.44-7.66h-7.23v-3.71h-19.9v3.71h-6.61v69.67h14.52v-9.22h4.71v9.22h14.51Z"/><path class="cls-13" d="M108.37,322.08H104.5v-3.93h3.87Zm0-6.41H104.5v-3.93h3.87Zm0-6.41H104.5v-3.93h3.87Zm0-6.68H104.5v-3.93h3.87Zm0-6.68H104.5V292h3.87Zm0-6.67H104.5V285.3h3.87Zm0-6.68H104.5v-3.93h3.87ZM101,322.08H97.17v-3.93H101Zm0-6.41H97.17v-3.93H101Zm0-6.41H97.17v-3.93H101Zm0-6.68H97.17v-3.93H101Zm0-6.68H97.17V292H101Zm0-6.67H97.17V285.3H101Zm0-6.68H97.17v-3.93H101ZM93.7,322.08H89.83v-3.93H93.7Zm0-6.41H89.83v-3.93H93.7Zm0-6.41H89.83v-3.93H93.7Zm0-6.68H89.83v-3.93H93.7Zm0-6.68H89.83V292H93.7Zm0-6.67H89.83V285.3H93.7Zm0-6.68H89.83v-3.93H93.7Zm19.28-6.3H107V273.2H90.67v3.05H85.23v57.29H97.17V326H101v7.58H113Z"/><path class="cls-13" d="M76.32,315.4H70.19v-6.22h6.13Zm0-10.15H70.19V299h6.13Zm0-10.14H70.19v-6.22h6.13Zm0-10.57H70.19v-6.22h6.13Zm0-10.57H70.19v-6.22h6.13Zm0-10.57H70.19v-6.22h6.13Zm0-10.57H70.19v-6.22h6.13ZM64.71,315.4H58.58v-6.22h6.13Zm0-10.15H58.58V299h6.13Zm0-10.14H58.58v-6.22h6.13Zm0-10.57H58.58v-6.22h6.13Zm0-10.57H58.58v-6.22h6.13Zm0-10.57H58.58v-6.22h6.13Zm0-10.57H58.58v-6.22h6.13ZM53.1,315.4H47v-6.22H53.1Zm0-10.15H47V299H53.1Zm0-10.14H47v-6.22H53.1Zm0-10.57H47v-6.22H53.1Zm0-10.57H47v-6.22H53.1Zm0-10.57H47v-6.22H53.1Zm0-10.57H47v-6.22H53.1Zm30.5-10H74.2V238H48.29v4.82h-8.6v90.68H58.58v-12h6.13v12H83.6Z"/><path class="cls-13" d="M559.53,315.4H553.4v-6.22h6.13Zm0-10.15H553.4V299h6.13Zm0-10.14H553.4v-6.22h6.13Zm0-10.57H553.4v-6.22h6.13Zm0-10.57H553.4v-6.22h6.13Zm0-10.57H553.4v-6.22h6.13Zm0-10.57H553.4v-6.22h6.13ZM547.92,315.4h-6.13v-6.22h6.13Zm0-10.15h-6.13V299h6.13Zm0-10.14h-6.13v-6.22h6.13Zm0-10.57h-6.13v-6.22h6.13Zm0-10.57h-6.13v-6.22h6.13Zm0-10.57h-6.13v-6.22h6.13Zm0-10.57h-6.13v-6.22h6.13ZM536.31,315.4h-6.13v-6.22h6.13Zm0-10.15h-6.13V299h6.13Zm0-10.14h-6.13v-6.22h6.13Zm0-10.57h-6.13v-6.22h6.13Zm0-10.57h-6.13v-6.22h6.13Zm0-10.57h-6.13v-6.22h6.13Zm0-10.57h-6.13v-6.22h6.13Zm30.5-10h-9.4V238H531.5v4.82h-8.6v90.68h18.9v-12h6.13v12H566.8Z"/><path class="cls-13" d="M386.64,319.6h-4.71v-4.78h4.71Zm0-7.79h-4.71V307h4.71Zm0-7.8h-4.71v-4.78h4.71Zm0-8.12h-4.71v-4.78h4.71Zm0-8.12h-4.71V283h4.71Zm0-8.12h-4.71v-4.78h4.71Zm0-8.12h-4.71v-4.78h4.71Zm-8.92,48.07H373v-4.78h4.71Zm0-7.79H373V307h4.71Zm0-7.8H373v-4.78h4.71Zm0-8.12H373v-4.78h4.71Zm0-8.12H373V283h4.71Zm0-8.12H373v-4.78h4.71Zm0-8.12H373v-4.78h4.71ZM368.8,319.6h-4.71v-4.78h4.71Zm0-7.79h-4.71V307h4.71Zm0-7.8h-4.71v-4.78h4.71Zm0-8.12h-4.71v-4.78h4.71Zm0-8.12h-4.71V283h4.71Zm0-8.12h-4.71v-4.78h4.71Zm0-8.12h-4.71v-4.78h4.71Zm23.43-7.66H385v-3.71H365.1v3.71h-6.6v69.67H373v-9.22h4.71v9.22h14.51Z"/><path class="cls-13" d="M429.53,324.47h-7.25v9.07h7.25ZM455.68,329H451.3v-6.22h4.38Zm0-7.77H451.3V315h4.38Zm0-7.78H451.3v-6.22h4.38Zm0-7.77H451.3v-6.22h4.38ZM449.55,329h-4.38v-6.22h4.38Zm0-7.77h-4.38V315h4.38Zm0-7.78h-4.38v-6.22h4.38Zm0-7.77h-4.38v-6.22h4.38ZM443.42,329H439v-6.22h4.38Zm0-7.77H439V315h4.38Zm0-7.78H439v-6.22h4.38Zm0-7.77H439v-6.22h4.38ZM437.29,329h-4.38v-6.22h4.38Zm0-7.77h-4.38V315h4.38Zm0-7.78h-4.38v-6.22h4.38Zm0-7.77h-4.38v-6.22h4.38Zm-6.13,15.55h-4.38V315h4.38Zm0-7.78h-4.38v-6.22h4.38Zm0-7.77h-4.38v-6.22h4.38Zm-.71-11.35h-3v3h-3v-3h-3v-3.08h3v-3h3v3h3Zm-9.8,5.13H425v6.22h-4.38ZM418.9,329h-4.38v-6.22h4.38Zm0-7.77h-4.38V315h4.38Zm0-7.78h-4.38v-6.22h4.38Zm0-7.77h-4.38v-6.22h4.38ZM412.77,329h-4.38v-6.22h4.38Zm0-7.77h-4.38V315h4.38Zm0-7.78h-4.38v-6.22h4.38Zm0-7.77h-4.38v-6.22h4.38ZM406.64,329h-4.38v-6.22h4.38Zm0-7.77h-4.38V315h4.38Zm0-7.78h-4.38v-6.22h4.38Zm0-7.77h-4.38v-6.22h4.38ZM400.51,329h-4.38v-6.22h4.38Zm0-7.77h-4.38V315h4.38Zm0-7.78h-4.38v-6.22h4.38Zm0-7.77h-4.38v-6.22h4.38Zm20.14,1.55H425v6.22h-4.38Zm0,7.77H425v6.23h-4.38Zm37.74,18.58V297.31H441.31V286.07h-30.7v11.24H393.86v36.23h26.79v-10.8h10.51v10.8Z"/><polygon class="cls-13" points="521.27 333.54 460.02 333.54 460.02 305.97 463.19 305.97 464.77 266.35 469.7 266.35 470.93 305.97 474.1 305.97 486.42 294.63 486.42 305.97 498.93 294.73 498.93 306.05 510.35 294.37 510.35 305.97 521.09 294.73 521.27 333.54"/><polygon class="cls-13" points="281.94 333.54 218.86 333.54 218.86 305.14 222.12 305.14 223.75 264.33 228.83 264.33 230.1 305.14 233.36 305.14 246.05 293.46 246.05 305.14 258.94 293.56 258.94 305.23 270.71 293.19 270.71 305.14 281.76 293.56 281.94 333.54"/><path class="cls-13" d="M187.15,324.08h-7.56v9.46h7.56Zm27.26,4.69h-4.57v-6.49h4.57Zm0-8.11h-4.57v-6.48h4.57Zm0-8.1h-4.57v-6.48h4.57Zm0-8.1h-4.57V298h4.57ZM208,328.77h-4.57v-6.49H208Zm0-8.11h-4.57v-6.48H208Zm0-8.1h-4.57v-6.48H208Zm0-8.1h-4.57V298H208Zm-6.39,24.31h-4.57v-6.49h4.57Zm0-8.11h-4.57v-6.48h4.57Zm0-8.1h-4.57v-6.48h4.57Zm0-8.1h-4.57V298h4.57Zm-6.39,24.31h-4.57v-6.49h4.57Zm0-8.11h-4.57v-6.48h4.57Zm0-8.1h-4.57v-6.48h4.57Zm0-8.1h-4.57V298h4.57Zm-6.39,16.2h-4.57v-6.48h4.57Zm0-8.1h-4.57v-6.48h4.57Zm0-8.1h-4.57V298h4.57Zm-11-6.49h4.57v6.49h-4.57Zm-1.82,30.8H171.5v-6.49h4.57Zm0-8.11H171.5v-6.48h4.57Zm0-8.1H171.5v-6.48h4.57Zm0-8.1H171.5V298h4.57Zm-6.39,24.31h-4.57v-6.49h4.57Zm0-8.11h-4.57v-6.48h4.57Zm0-8.1h-4.57v-6.48h4.57Zm0-8.1h-4.57V298h4.57Zm-6.39,24.31h-4.57v-6.49h4.57Zm0-8.11h-4.57v-6.48h4.57Zm0-8.1h-4.57v-6.48h4.57Zm0-8.1h-4.57V298h4.57Zm-6.39,24.31h-4.57v-6.49h4.57Zm0-8.11h-4.57v-6.48h4.57Zm0-8.1h-4.57v-6.48h4.57Zm0-8.1h-4.57V298h4.57Zm21,1.62h4.57v6.48h-4.57Zm0,8.1h4.57v6.48h-4.57Zm39.34,19.36V295.78h-7.8l-10-11.72h-32l-10,11.72H150v37.76h27.92V322.28h11v11.26Z"/><rect class="cls-14" y="333.54" width="595.28" height="14.17"/><path class="cls-2" d="M388.62,60.3a1,1,0,0,0-1,1v2a1,1,0,0,0,.3.71,1,1,0,0,0,.7.29,1,1,0,0,0,1-1v-2a1,1,0,0,0-.29-.7,1,1,0,0,0-.71-.3m-4,0a1,1,0,0,0-1,1v2a1,1,0,0,0,.3.71,1,1,0,0,0,.7.29,1,1,0,0,0,1-1v-2a1,1,0,0,0-.29-.7,1,1,0,0,0-.71-.3m-4,0a1,1,0,0,0-1,1v2a1,1,0,0,0,.3.71,1,1,0,0,0,.7.29,1,1,0,0,0,1-1v-2a1,1,0,0,0-.29-.7,1,1,0,0,0-.71-.3m-4,0a1,1,0,0,0-1,1v2a1,1,0,0,0,.3.71,1,1,0,0,0,.7.29,1,1,0,0,0,1-1v-2a1,1,0,0,0-.29-.7,1,1,0,0,0-.71-.3m-4,8v-8a2,2,0,0,1,.59-1.41,2,2,0,0,1,1.41-.59h16a2,2,0,0,1,1.42.59,2,2,0,0,1,.58,1.41v8h-2v-2h-16v2Zm18-19.11-1.44,2.21,1.44,2.2h0l-2,3.09-1.75-.9,1.42-2.2-1.42-2.2,2-3.1Zm-6.05,0-1.42,2.21,1.42,2.2h0l-2,3.09-1.73-.9,1.42-2.2-1.42-2.2,2-3.1Zm-6,.11-1.42,2.19,1.42,2.21h0l-2,3.1-1.73-.9,1.42-2.21-1.42-2.2,2-3.1Z"/><path class="cls-2" d="M244.46,123.81a3.53,3.53,0,0,0,2.77-2.54c.38-1.57-1.12-3.1-.11-5.58.38,2,3.8,3.33,3.8,5.57.09,2.78-3.09,5.16-6.46,2.55m10.78-5.52c-1.82-4.48-8.32-4.72-6.75-11.22a.58.58,0,0,0-.87-.61c-4.21,2.35-7.25,7.06-4.7,13.22a.57.57,0,0,1-.87.65,5.28,5.28,0,0,1-2.14-5.21.59.59,0,0,0-1.06-.38,9.93,9.93,0,0,0-1.59,5.76c.44,6.15,5.94,8,7.91,8.28a10.41,10.41,0,0,0,8.07-2,7.3,7.3,0,0,0,2-8.44"/><path class="cls-15" d="M344.41,214.66h-26V191h26Zm0,36.61h-26V227.62h26Zm0,36.39h-26V264h26Zm0,36.38h-26V300.39h26ZM317.07,214.66h-26V191h26Zm0,36.61h-26V227.62h26Zm0,36.39h-26V264h26Zm0,36.38h-26V300.39h26Zm-86,5.69H367.48V184H231Z"/><path class="cls-16" d="M365.24,216.54h-132V187.2h132Zm0,36.38h-132V223.59h132Zm0,36.39h-132V260h132Zm0,36.38h-132V296.36h132ZM229,333.54H369.5V179.35H229Z"/><rect class="cls-17" x="233.27" y="296.3" width="28.9" height="29.33"/><rect class="cls-17" x="233.27" y="259.91" width="28.9" height="29.34"/><rect class="cls-17" x="233.27" y="223.53" width="28.9" height="29.33"/><rect class="cls-17" x="233.27" y="187.14" width="28.9" height="29.34"/><rect class="cls-17" x="263.52" y="191.01" width="25.99" height="23.65"/><rect class="cls-17" x="345.97" y="191.01" width="19.27" height="23.65"/><rect class="cls-17" x="263.52" y="227.62" width="25.99" height="23.65"/><rect class="cls-17" x="345.97" y="227.62" width="19.27" height="23.65"/><rect class="cls-17" x="263.52" y="262" width="25.99" height="25.65"/><rect class="cls-17" x="345.97" y="264.01" width="19.27" height="23.65"/><rect class="cls-17" x="263.52" y="300.39" width="25.99" height="23.65"/><rect class="cls-17" x="345.97" y="300.39" width="19.27" height="23.65"/><path class="cls-18" d="M356.68,322.61h.09a5.35,5.35,0,0,1,3.34-1.52v-1h.13v-.53h-2.4a.59.59,0,0,1-.58-.59v-.42a.58.58,0,0,1,.58-.59h4.44v-1.46l1.53-4.8c.7,0,.73.52.73,1.23a10.92,10.92,0,0,1-.35,2.09,6.7,6.7,0,0,1-1,1.48V318h.09a.58.58,0,0,1,.58.59V319a.59.59,0,0,1-.58.59h-2.39v.53H361v1a5.33,5.33,0,0,1,3.33,1.51.67.67,0,0,1,0,1.33.66.66,0,0,1-.65-.66.71.71,0,0,1,.13-.41,5.68,5.68,0,0,0-2.89-1.18v1a.66.66,0,1,1-1,.57.65.65,0,0,1,.34-.58v-1a5.64,5.64,0,0,0-3,1.24.68.68,0,0,1,.1.35.66.66,0,1,1-.66-.67"/><rect class="cls-17" x="233.27" y="296.34" width="28.9" height="29.37"/><polygon class="cls-19" points="262.19 324.22 239.47 324.22 239.47 309.44 241.29 309.44 241.29 307.81 243.11 307.81 243.11 306.17 244.97 306.17 244.95 304.54 246.76 304.54 246.79 302.89 248.61 302.89 248.61 301.26 250.45 301.26 250.45 299.61 252.27 299.61 252.27 297.99 254.11 297.99 254.11 296.34 262.19 296.34 262.19 324.22"/><polygon class="cls-17" points="233.22 325.61 262.19 325.61 262.19 323.96 260.37 323.96 260.37 322.33 258.56 322.33 258.56 320.68 256.69 320.68 256.71 319.06 254.9 319.06 254.87 317.41 253.05 317.41 253.05 315.78 251.21 315.78 251.21 314.13 249.4 314.13 249.4 312.5 247.55 312.5 247.55 310.86 233.22 310.85 233.22 325.61"/><polygon class="cls-19" points="262.19 287.79 239.47 287.79 239.47 273.02 241.29 273.02 241.29 271.39 243.11 271.39 243.11 269.74 244.97 269.74 244.95 268.12 246.76 268.12 246.79 266.47 248.61 266.47 248.61 264.84 250.45 264.84 250.45 263.19 252.27 263.19 252.27 261.56 254.11 261.56 254.11 259.92 262.19 259.91 262.19 287.79"/><polygon class="cls-17" points="233.22 289.19 262.19 289.19 262.19 287.54 260.37 287.54 260.37 285.91 258.56 285.91 258.56 284.26 256.69 284.26 256.71 282.63 254.9 282.63 254.87 280.99 253.05 280.99 253.05 279.36 251.21 279.36 251.21 277.71 249.4 277.71 249.4 276.08 247.55 276.08 247.55 274.44 233.22 274.43 233.22 289.19"/><polygon class="cls-19" points="262.19 251.29 239.47 251.29 239.47 236.52 241.29 236.52 241.29 234.89 243.11 234.89 243.11 233.24 244.97 233.24 244.95 231.61 246.76 231.61 246.79 229.97 248.61 229.97 248.61 228.34 250.45 228.34 250.45 226.69 252.27 226.69 252.27 225.06 254.11 225.06 254.11 223.42 262.19 223.41 262.19 251.29"/><polygon class="cls-17" points="233.22 252.53 262.19 252.53 262.19 250.88 260.37 250.88 260.37 249.26 258.56 249.26 258.56 247.61 256.69 247.61 256.71 245.98 254.9 245.98 254.87 244.33 253.05 244.33 253.05 242.7 251.21 242.7 251.21 241.06 249.4 241.06 249.4 239.43 247.55 239.43 247.55 237.78 233.22 237.78 233.22 252.53"/><polygon class="cls-19" points="262.08 214.91 239.36 214.91 239.36 200.13 241.17 200.13 241.17 198.5 242.99 198.5 242.99 196.85 244.86 196.85 244.83 195.23 246.65 195.23 246.68 193.58 248.49 193.58 248.49 191.95 250.33 191.95 250.33 190.3 252.15 190.3 252.15 188.68 253.99 188.68 253.99 187.03 262.08 187.03 262.08 214.91"/><polygon class="cls-17" points="233.26 216.6 262.23 216.6 262.23 214.95 260.41 214.95 260.41 213.32 258.59 213.32 258.59 211.68 256.73 211.68 256.75 210.05 254.93 210.05 254.91 208.4 253.09 208.4 253.09 206.77 251.25 206.77 251.25 205.12 249.43 205.12 249.43 203.5 247.59 203.5 247.59 201.85 233.26 201.85 233.26 216.6"/><polygon class="cls-18" points="326.59 278.58 326.59 279.06 324.53 279.06 324.53 280 324.53 280.54 324.53 287.64 323.07 287.64 323.07 280.54 309.55 280.54 309.55 287.64 308.09 287.64 308.09 280.54 308.09 280 308.09 279.06 306.02 279.06 306.02 278.58 326.59 278.58"/><polygon class="cls-18" points="296.65 242.28 296.65 242.75 298.71 242.75 298.71 243.7 298.71 244.24 298.71 251.33 300.18 251.33 300.18 244.24 313.69 244.24 313.69 251.33 315.16 251.33 315.16 244.24 315.16 243.7 315.16 242.75 317.22 242.75 317.22 242.28 296.65 242.28"/><polygon class="cls-18" points="332.65 242.28 332.65 242.75 334.71 242.75 334.71 243.7 334.71 244.24 334.71 251.33 336.18 251.33 336.18 244.24 349.69 244.24 349.69 251.33 351.16 251.33 351.16 244.24 351.16 243.7 351.16 242.75 353.22 242.75 353.22 242.28 332.65 242.28"/><path class="cls-18" d="M336.5,213.46h-.08a5.4,5.4,0,0,0-3.34-1.52v-1H333v-.53h2.39a.58.58,0,0,0,.58-.59v-.42a.59.59,0,0,0-.58-.59h-2.26v-1.46h.66a1.28,1.28,0,0,0,1.27-1.29v-2.22a1.28,1.28,0,0,0-1.27-1.29h-2.19a1.28,1.28,0,0,0-1.27,1.29v2.22a1.28,1.28,0,0,0,1.27,1.29h.66v1.46h-2.27a.59.59,0,0,0-.58.59v.42a.58.58,0,0,0,.58.59h2.4v.53h-.13v1a5.39,5.39,0,0,0-3.33,1.51.66.66,0,0,0-.64.67.66.66,0,1,0,1.17-.41,5.61,5.61,0,0,1,2.9-1.17v1a.68.68,0,0,0-.32.57.66.66,0,1,0,1.31,0,.66.66,0,0,0-.34-.58v-1a5.68,5.68,0,0,1,3,1.24.6.6,0,0,0-.1.35.66.66,0,1,0,.65-.67"/><path class="cls-18" d="M348.28,213.46h-.09a5.35,5.35,0,0,0-3.34-1.52v-1h-.13v-.53h2.4a.58.58,0,0,0,.58-.59v-.42a.59.59,0,0,0-.58-.59h-2.27v-1.46h.66a1.28,1.28,0,0,0,1.27-1.29v-2.22a1.28,1.28,0,0,0-1.27-1.29h-2.19a1.28,1.28,0,0,0-1.27,1.29v2.22a1.28,1.28,0,0,0,1.27,1.29H344v1.46h-2.26a.59.59,0,0,0-.58.59v.42a.58.58,0,0,0,.58.59h2.39v.53H344v1a5.39,5.39,0,0,0-3.33,1.51.67.67,0,0,0,0,1.33.66.66,0,0,0,.65-.66.71.71,0,0,0-.13-.41,5.54,5.54,0,0,1,2.89-1.17v1a.68.68,0,0,0-.32.57.66.66,0,1,0,1-.58v-1a5.64,5.64,0,0,1,3,1.24.68.68,0,0,0-.1.35.66.66,0,1,0,.66-.67"/><path class="cls-18" d="M322.79,213.46h-.09a5.34,5.34,0,0,0-3.33-1.52v-1h-.13v-.53h2.39a.58.58,0,0,0,.58-.59v-.42a.59.59,0,0,0-.58-.59H317.2v-1.46l-1.53-4.8c-.7,0-.73.52-.73,1.23a10.67,10.67,0,0,0,.34,2.09,7.06,7.06,0,0,0,1,1.48v1.46h-.09a.59.59,0,0,0-.58.59v.42a.58.58,0,0,0,.58.59h2.39v.53h-.13v1a5.41,5.41,0,0,0-3.33,1.51.67.67,0,1,0,.68.67.72.72,0,0,0-.14-.41,5.61,5.61,0,0,1,2.89-1.17v1a.68.68,0,0,0-.32.57.66.66,0,1,0,1-.58v-1a5.64,5.64,0,0,1,3,1.24.68.68,0,0,0-.1.35.66.66,0,1,0,.66-.67"/><path class="cls-18" d="M354,213.46h.08a5.4,5.4,0,0,1,3.34-1.52v-1h.13v-.53H355.2a.58.58,0,0,1-.58-.59v-.42a.59.59,0,0,1,.58-.59h4.43v-1.46l1.53-4.8c.7,0,.73.52.73,1.23a10.67,10.67,0,0,1-.34,2.09,7.06,7.06,0,0,1-1,1.48v1.46h.09a.59.59,0,0,1,.58.59v.42a.58.58,0,0,1-.58.59h-2.4v.53h.13v1a5.39,5.39,0,0,1,3.33,1.51.66.66,0,0,1,.64.67.66.66,0,1,1-1.17-.41,5.61,5.61,0,0,0-2.89-1.17v1a.67.67,0,0,1,.31.57.66.66,0,1,1-1.31,0,.66.66,0,0,1,.34-.58v-1a5.64,5.64,0,0,0-3,1.24.68.68,0,0,1,.09.35.66.66,0,0,1-.65.66.67.67,0,0,1,0-1.33"/><polygon class="cls-18" points="322.94 205.74 322.94 206.21 325 206.21 325 207.16 325 207.7 325 214.79 326.46 214.79 326.46 207.7 350.61 207.7 350.61 214.79 352.07 214.79 352.07 207.7 352.07 207.16 352.07 206.21 354.14 206.21 354.14 205.74 322.94 205.74"/><rect class="cls-15" x="303.96" y="300.39" width="0.23" height="23.65"/><rect class="cls-20" x="278.26" y="268.5" width="9.13" height="19.14"/><rect class="cls-20" x="265.68" y="304.8" width="9.13" height="19.14"/><rect class="cls-20" x="278.26" y="304.8" width="9.13" height="19.14"/><rect class="cls-21" x="266.01" y="305.15" width="8.47" height="18.79"/><rect class="cls-21" x="278.61" y="305.15" width="8.44" height="18.79"/><path class="cls-2" d="M270.62,309.79a.4.4,0,0,0-.39-.4.4.4,0,0,0,0,.8.4.4,0,0,0,.39-.4"/><path class="cls-2" d="M271.24,310.77h0v-.09a.26.26,0,0,0-.27-.27h-1.4a.27.27,0,0,0-.28.27v.09h0v1.52a.13.13,0,0,0,.13.13h.07a.13.13,0,0,0,.13-.13V311h.13v1.31h0v2a.19.19,0,0,0,.19.2H270a.19.19,0,0,0,.19-.2v-2h.14v2a.19.19,0,0,0,.19.2h.06a.19.19,0,0,0,.19-.2v-2h0V311h.15v1.26a.13.13,0,0,0,.13.13h.07a.12.12,0,0,0,.12-.13Z"/><path class="cls-2" d="M283.23,310a.37.37,0,1,0-.73,0,.37.37,0,0,0,.73,0"/><path class="cls-2" d="M284,312l-.33-1.33s0-.1-.11-.1h-1.25c-.09,0-.12.1-.12.1l-.33,1.33c0,.12.1.16.1.16h0c.12,0,.16-.1.16-.1l.22-.93h.17l-.49,1.75h.42v1.36a.13.13,0,0,0,.13.13h.07a.13.13,0,0,0,.13-.13v-1.36H283v1.36a.13.13,0,0,0,.13.13h.08a.12.12,0,0,0,.12-.13v-1.36h.4l-.47-1.75h.17l.23.93s0,.13.15.1h.05A.13.13,0,0,0,284,312"/><path class="cls-22" d="M309.81,240.34h-9.87a.1.1,0,0,1-.1-.1V234.4a.1.1,0,0,1,.1-.09h9.87a.1.1,0,0,1,.1.09v5.84a.1.1,0,0,1-.1.1"/><rect class="cls-23" x="300.11" y="234.58" width="9.53" height="5.48"/><polygon class="cls-18" points="300.11 234.58 300.11 234.59 309.63 234.59 309.63 240.05 300.12 240.05 300.12 234.58 300.11 234.58 300.11 234.59 300.11 234.58 300.1 234.58 300.1 240.07 309.65 240.07 309.65 234.57 300.1 234.57 300.1 234.58 300.11 234.58"/><rect class="cls-24" x="304.33" y="240.34" width="1.09" height="1.6"/><rect class="cls-22" x="303.09" y="241.9" width="3.65" height="0.27"/><path class="cls-18" d="M313.76,250h-.08a5.4,5.4,0,0,0-3.34-1.52v-1h-.13v-.53h2.39a.59.59,0,0,0,.58-.59v-.42a.58.58,0,0,0-.58-.59h-2.26v-1.47H311a1.27,1.27,0,0,0,1.27-1.28v-2.22a1.28,1.28,0,0,0-1.27-1.29h-2.18a1.28,1.28,0,0,0-1.27,1.29v2.22a1.27,1.27,0,0,0,1.27,1.28h.65v1.47H307.2a.58.58,0,0,0-.58.59v.42a.59.59,0,0,0,.58.59h2.4v.53h-.14v1a5.36,5.36,0,0,0-3.33,1.51.67.67,0,0,0,0,1.33.67.67,0,0,0,.66-.66.64.64,0,0,0-.14-.41,5.71,5.71,0,0,1,2.89-1.18v1a.64.64,0,0,0-.31.57.66.66,0,0,0,.65.66.66.66,0,0,0,.32-1.24v-1a5.64,5.64,0,0,1,3,1.24.68.68,0,0,0-.09.35.66.66,0,0,0,.65.66.67.67,0,0,0,0-1.33"/><path class="cls-25" d="M288.75,321.83c.79-1.42-1.31-3.43-1.31-3.43s.45.26,1.34.87.84,2.47.84,2.47"/><path class="cls-25" d="M290.73,321.67s-.63-3,0-4.36a9.58,9.58,0,0,1,1.57-2.41s-2.66,2.12-2.66,3.77a28.62,28.62,0,0,0,.19,3.16"/><path class="cls-25" d="M291.08,321.74a10.79,10.79,0,0,0-.45-4,12.11,12.11,0,0,0-1-1.93s1.46,4.38.92,5.94"/><path class="cls-25" d="M289.92,321.46a5,5,0,0,0,0-3,4.87,4.87,0,0,0-1.73-1.88,2.83,2.83,0,0,1,1,2.13,10.63,10.63,0,0,1-.16,3.06"/><path class="cls-25" d="M291,321.56a2.26,2.26,0,0,1,.76-1.8,6.42,6.42,0,0,1,2.94-1.2,3.21,3.21,0,0,0-2.33.22c-1.16.67-2.37,1.42-2.35,2.89"/><polygon class="cls-26" points="288.54 321.47 291.7 321.47 291.44 324.11 288.8 324.11 288.54 321.47"/><rect class="cls-17" x="288.46" y="321.36" width="3.32" height="0.77"/><path class="cls-25" d="M346.59,321.72c-.79-1.42,1.3-3.43,1.3-3.43s-.45.26-1.33.86-.84,2.48-.84,2.48"/><path class="cls-25" d="M344.61,321.55s.63-3,0-4.36a9.4,9.4,0,0,0-1.56-2.41s2.66,2.12,2.66,3.78a28.62,28.62,0,0,1-.19,3.16"/><path class="cls-25" d="M344.25,321.63a11.06,11.06,0,0,1,.45-4,12.61,12.61,0,0,1,1-1.92s-1.47,4.38-.92,5.94"/><path class="cls-25" d="M345.41,321.34a5.08,5.08,0,0,1,0-3,4.85,4.85,0,0,1,1.74-1.88,2.78,2.78,0,0,0-1,2.12,10.37,10.37,0,0,0,.16,3.07"/><path class="cls-25" d="M344.32,321.44a2.27,2.27,0,0,0-.76-1.8,6.36,6.36,0,0,0-2.95-1.19,3.14,3.14,0,0,1,2.34.21c1.16.67,2.37,1.42,2.35,2.89"/><polygon class="cls-26" points="346.8 321.36 343.64 321.36 343.9 323.99 346.54 323.99 346.8 321.36"/><rect class="cls-17" x="343.56" y="321.24" width="3.32" height="0.77"/><path class="cls-25" d="M341,285.41c-.79-1.42,1.3-3.43,1.3-3.43s-.45.26-1.33.87-.84,2.47-.84,2.47"/><path class="cls-25" d="M339,285.25s.63-3,0-4.37a9.63,9.63,0,0,0-1.56-2.41s2.66,2.13,2.66,3.78a28.62,28.62,0,0,1-.19,3.16"/><path class="cls-25" d="M338.65,285.32a10.87,10.87,0,0,1,.46-4,12.11,12.11,0,0,1,1-1.93s-1.47,4.38-.92,5.94"/><path class="cls-25" d="M339.81,285a5.12,5.12,0,0,1,0-3,4.94,4.94,0,0,1,1.74-1.88,2.79,2.79,0,0,0-1,2.13,10.29,10.29,0,0,0,.16,3.06"/><path class="cls-25" d="M338.72,285.13a2.24,2.24,0,0,0-.76-1.79,6.4,6.4,0,0,0-2.95-1.2,3.2,3.2,0,0,1,2.34.21c1.16.68,2.37,1.43,2.35,2.9"/><polygon class="cls-26" points="341.2 285.05 338.04 285.05 338.3 287.68 340.94 287.68 341.2 285.05"/><rect class="cls-17" x="337.96" y="284.94" width="3.32" height="0.77"/><path class="cls-25" d="M294.59,248.64c-.79-1.42,1.3-3.43,1.3-3.43s-.45.26-1.33.87-.84,2.47-.84,2.47"/><path class="cls-25" d="M292.61,248.48s.63-3,0-4.37a9.63,9.63,0,0,0-1.56-2.41s2.66,2.13,2.66,3.78a28.62,28.62,0,0,1-.19,3.16"/><path class="cls-25" d="M292.25,248.55a10.87,10.87,0,0,1,.46-4,12.11,12.11,0,0,1,1-1.93s-1.47,4.38-.92,5.94"/><path class="cls-25" d="M293.41,248.27a5.11,5.11,0,0,1,0-3,4.94,4.94,0,0,1,1.74-1.88,2.79,2.79,0,0,0-1,2.13,10.29,10.29,0,0,0,.16,3.06"/><path class="cls-25" d="M292.32,248.36a2.24,2.24,0,0,0-.76-1.79,6.4,6.4,0,0,0-2.95-1.2,3.24,3.24,0,0,1,2.34.22c1.16.67,2.37,1.42,2.35,2.89"/><polygon class="cls-26" points="294.8 248.28 291.64 248.28 291.9 250.91 294.54 250.91 294.8 248.28"/><rect class="cls-17" x="291.56" y="248.17" width="3.32" height="0.77"/><path class="cls-25" d="M340.67,204.35c-.46-.83.76-2,.76-2l-.78.51c-.52.35-.49,1.45-.49,1.45"/><path class="cls-25" d="M339.51,204.25a3.7,3.7,0,0,0-.91-4s1.56,1.25,1.56,2.21a15.46,15.46,0,0,1-.12,1.85"/><path class="cls-25" d="M339.3,204.3a6.49,6.49,0,0,1,.26-2.35,7.51,7.51,0,0,1,.6-1.13s-.86,2.56-.54,3.48"/><path class="cls-25" d="M340,204.13a3,3,0,0,1,0-1.77,2.92,2.92,0,0,1,1-1.1,1.66,1.66,0,0,0-.59,1.25,6.46,6.46,0,0,0,.1,1.79"/><path class="cls-25" d="M339.34,204.19a1.32,1.32,0,0,0-.44-1.05,3.72,3.72,0,0,0-1.73-.7,1.87,1.87,0,0,1,1.37.12c.68.39,1.38.83,1.37,1.69"/><polygon class="cls-26" points="340.79 204.14 338.94 204.14 339.09 205.68 340.64 205.68 340.79 204.14"/><rect class="cls-17" x="338.9" y="204.07" width="1.94" height="0.45"/><polygon class="cls-18" points="357.22 315 357.22 315.48 355.16 315.48 355.16 316.42 355.16 316.96 355.16 324.06 345.79 324.06 345.79 315 357.22 315"/><rect class="cls-23" x="271.28" y="195.07" width="10.51" height="5.8"/><path class="cls-27" d="M334.81,195.66a.83.83,0,1,1-1.65,0,.83.83,0,1,1,1.65,0"/><polygon class="cls-18" points="333.91 192.02 330.7 195.35 337.13 195.35 333.91 192.02"/><rect class="cls-18" x="333.84" y="187.54" width="0.15" height="5.61"/><path class="cls-27" d="M343.77,235.54a.82.82,0,1,1-.82-.83.82.82,0,0,1,.82.83"/><polygon class="cls-18" points="342.88 231.9 339.67 235.24 346.09 235.24 342.88 231.9"/><rect class="cls-18" x="342.8" y="223.56" width="0.15" height="9.48"/><path class="cls-27" d="M277.43,231.9a.83.83,0,1,1-.82-.83.83.83,0,0,1,.82.83"/><polygon class="cls-18" points="276.53 228.26 273.32 231.6 279.75 231.6 276.53 228.26"/><rect class="cls-18" x="276.46" y="223.64" width="0.15" height="5.76"/></g></g></svg>